<svg display='none' xmlns="http://www.w3.org/2000/svg">

    <!-- SERVICES -->
    <symbol id='design' viewBox="0 0 60 60">
        <g>
            <path id="Shape" d="m33.016 6h2c.5522847 0 1-.44771525 1-1s-.4477153-1-1-1h-2c-.5522847 0-1 .44771525-1 1s.4477153 1 1 1z" />
            <path id="Shape" d="m7.016 6h22c.5522847 0 1-.44771525 1-1s-.4477153-1-1-1h-22c-.55228475 0-1 .44771525-1 1s.44771525 1 1 1z" />
            <path id="Shape" d="m58.721 29.111c1.844631-2.0550516 1.6740514-5.2163689-.3810001-7.0609999s-5.2163688-1.6740516-7.0609999.3809999c-5.034 5.605-2.734 3.044-11.263 12.543v-12.974h9c1.6568542 0 3-1.3431458 3-3v-12c-.0049584-3.86393756-3.1360624-6.99504164-7-7h-38c-3.86416566.00440864-6.99559136 3.13583434-7 7v50c0 1.6568542 1.34314575 3 3 3h34c1.6568542 0 3-1.3431458 3-3v-7.059zm-5.953-5.344c.7108774-.8168661 1.8068033-1.1872348 2.8674721-.9690636s1.9214443.991018 2.2522048 2.0221409c.3307606 1.0311228.0801659 2.1604718-.6556769 2.9549227l-3.34 3.725c-2.757-2.475-1.724-1.548-4.465-4.01zm-2.752-16.767v12c0 .5522847-.4477153 1-1 1h-9v-13c0-2.76142375 2.2385763-5 5-5s5 2.23857625 5 5zm-13 51h-34c-.55228475 0-1-.4477153-1-1v-50c.00330612-2.76005315 2.23994685-4.99669388 5-5h33.11c-1.3492728 1.31362278-2.1102472 3.11687977-2.11 5v30.2l-4.032 4.489c-.1555616-1.5237211-1.4363663-2.6841268-2.968-2.689v-15h2.94c.6534564.0124863 1.2721839-.2935215 1.6588659-.8204353.386682-.5269139.4930319-1.208936.2851341-1.8285647l-2.469-7c-.2975927-.816184-1.0762762-1.3570588-1.945-1.351h-6.941c-.8686314-.0057603-1.6471599.5350068-1.945 1.351l-2.47 7c-.2079619.6197985-.1014992 1.3020164.2854194 1.8289816.3869186.5269653 1.0059492.8328356 1.6595806.8200184h2.941v15c-1.6568542 0-3 1.3431458-3 3v2h-3v-3.278c.6157032-.3554644.996422-1.0110622 1-1.722v-1.78c.788285-.7019526 1.146099-1.7687339.9405172-2.8040439s-.9438397-1.884444-1.9405172-2.2319561v-6.184c0-2.209139-1.790861-4-4-4h-5c-2.209139 0-4 1.790861-4 4v6.184c-.99711482.3470254-1.73584144 1.1962083-1.94147251 2.2317664-.20563106 1.035558.15259745 2.1025636.94147251 2.8042336v1.78c.002145.7113268.38324874 1.3675874 1 1.722v3.278c-.55228475 0-1 .4477153-1 1s.44771525 1 1 1h25.084l-2.932 8h-16.152c-.5522847 0-1 .4477153-1 1s.4477153 1 1 1h17c.3865378-.0004669.7376777-.2251965.9-.576l8.1-4v5.576c0 .5522847-.4477153 1-1 1zm-.183-8.223-6.092 3.008 2.338-6.379zm-14.758-27.777c-.1.027-.344.8 2.47-7l7 .017 2.411 6.983zm4.941 2h2v15h-2zm4 17c.5522847 0 1 .4477153 1 1v1.884c-.149.166.751.116-8 .116v-2c0-.5522847.4477153-1 1-1zm-13-7c.5522847 0 1 .4477153 1 1s-.4477153 1-1 1-1-.4477153-1-1 .4477153-1 1-1zm-1-1.816c-.846935.3025307-1.5134693.969065-1.816 1.816h-5.369c-.30231576-.8467209-.9684458-1.5132179-1.815-1.816v-6.184c0-1.1045695.8954305-2 2-2h5c1.1045695 0 2 .8954305 2 2zm-10 1.816c.55228475 0 1 .4477153 1 1s-.44771525 1-1 1-1-.4477153-1-1 .44771525-1 1-1zm2.815 2h5.369c.4222546 1.1943509 1.5492146 1.9947486 2.816 2v1h-11v-1c1.26641797-.0056727 2.39286915-.8059932 2.815-2zm-1.815 5h1.784l-.6 3h-1.184zm3.819 0h1.365l.6 3h-2.565zm3.4 0h1.781v3h-1.181zm23.29 7.608-4.464-4.008 14.03-15.625 4.465 4.009z" />
            <path id="Shape" d="m9.016 54h-3c-.55228475 0-1 .4477153-1 1s.44771525 1 1 1h3c.55228475 0 1-.4477153 1-1s-.44771525-1-1-1z" />
        </g>
    </symbol>

    <symbol id='architecture' viewBox="0 0 64 64">
        <g>
            <path d="m7 62h4c.55273 0 1-.44775 1-1v-7h24v7c0 .55225.44727 1 1 1h9 6 9c.55273 0 1-.44775 1-1v-15c0-.26514-.10547-.51953-.29297-.70703l-1.70703-1.70703v-8.58594-32c0-.55225-.44727-1-1-1h-52c-2.75684 0-5 2.24316-5 5v50c0 2.75684 2.24316 5 5 5zm40-2v-10h4v10zm13 0h-7v-11c0-.55225-.44727-1-1-1h-6c-.55273 0-1 .44775-1 1v11h-7v-13.58594l11-11 4.29297 4.29297c.28711.28662.7168.37207 1.08984.2168.37403-.15479.61719-.51953.61719-.92383v-3h3v8c0 .26514.10547.51953.29297.70703l1.70703 1.70703zm-53-56h51v30h-4c-.55273 0-1 .44775-1 1v1.58594l-3.29297-3.29297c-.39062-.39062-1.02344-.39062-1.41406 0l-12 12c-.1875.1875-.29297.44189-.29297.70703v6h-24v-41c0-.55225-.44727-1-1-1h-4c-1.6543 0-3-1.3457-3-3s1.3457-3 3-3zm-3 6.99756c.83594.6289 1.875 1.00244 3 1.00244h3v48h-3c-1.6543 0-3-1.3457-3-3z" />
            <path d="m16 43h6c.55273 0 1-.44775 1-1 0-1.30371.83594-2.41602 2-2.82861v2.82861c0 .55225.44727 1 1 1h7c.55273 0 1-.44775 1-1v-13h20c.55273 0 1-.44775 1-1v-20c0-.55225-.44727-1-1-1h-38c-.55273 0-1 .44775-1 1v34c0 .55225.44727 1 1 1zm37-16h-12v-2h3c.55273 0 1-.44775 1-1 0-2.41455-1.7207-4.43506-4-4.89941v-10.10059h12zm-25-18v10h-1v2h2c.55273 0 1-.44775 1-1v-11h9v11c0 .55225.44727 1 1 1 1.30371 0 2.41602.83594 2.8291 2h-2.8291c-.55273 0-1 .44775-1 1v3h-6c-.55273 0-1 .44775-1 1v13h-5v-3c0-.55225-.44727-1-1-1-2.41504 0-4.43457 1.7207-4.89941 4h-4.10059v-20h7v-2h-7v-10z" />
            <path d="m14 48h2v2h-2z" />
            <path d="m18 48h2v2h-2z" />
            <path d="m22 48h2v2h-2z" />
        </g>
    </symbol>

    <symbol id='planning' viewBox="0 0 512.001 512.001">
        <g>
            <path d="M400.003,152H256.001c-5.523,0-10,4.477-10,10s4.477,10,10,10h144.002c5.523,0,10-4.477,10-10S405.526,152,400.003,152z" />
            <path d="M365.011,202.931c-1.86-1.86-4.44-2.93-7.07-2.93s-5.21,1.07-7.07,2.93c-1.86,1.86-2.93,4.44-2.93,7.07
			s1.07,5.21,2.93,7.07s4.44,2.93,7.07,2.93s5.21-1.07,7.07-2.93c1.86-1.86,2.93-4.44,2.93-7.07S366.871,204.791,365.011,202.931z" />
            <path d="M263.061,45.931c-1.86-1.86-4.44-2.93-7.07-2.93s-5.21,1.07-7.07,2.93c-1.86,1.86-2.93,4.44-2.93,7.07
			s1.07,5.21,2.93,7.07c1.86,1.86,4.44,2.93,7.07,2.93s5.21-1.07,7.07-2.93c1.86-1.86,2.93-4.44,2.93-7.07
			S264.921,47.791,263.061,45.931z" />
            <path d="M315.878,200h-59.877c-5.523,0-10,4.477-10,10s4.477,10,10,10h59.877c5.523,0,10-4.477,10-10S321.401,200,315.878,200z" />
            <path d="M400.003,260H256.001c-5.523,0-10,4.477-10,10s4.477,10,10,10h144.002c5.523,0,10-4.477,10-10S405.526,260,400.003,260z" />
            <path d="M365.011,310.931c-1.86-1.86-4.44-2.93-7.07-2.93s-5.21,1.07-7.07,2.93c-1.86,1.86-2.93,4.44-2.93,7.07
			s1.07,5.21,2.93,7.07s4.44,2.93,7.07,2.93s5.21-1.07,7.07-2.93c1.86-1.86,2.93-4.44,2.93-7.07S366.871,312.791,365.011,310.931z" />
            <path d="M315.878,308h-59.877c-5.523,0-10,4.477-10,10s4.477,10,10,10h59.877c5.523,0,10-4.477,10-10S321.401,308,315.878,308z" />
            <path d="M400.003,368H256.001c-5.523,0-10,4.477-10,10s4.477,10,10,10h144.002c5.523,0,10-4.477,10-10S405.526,368,400.003,368z" />
            <path d="M365.011,418.931c-1.86-1.86-4.44-2.93-7.07-2.93s-5.21,1.07-7.07,2.93c-1.86,1.86-2.93,4.44-2.93,7.07
			s1.07,5.21,2.93,7.07s4.44,2.93,7.07,2.93s5.21-1.07,7.07-2.93c1.86-1.86,2.93-4.44,2.93-7.07S366.871,420.791,365.011,418.931z" />
            <path d="M315.878,416h-59.877c-5.523,0-10,4.477-10,10s4.477,10,10,10h59.877c5.523,0,10-4.477,10-10S321.401,416,315.878,416z" />
            <path d="M419.243,39.001h-76.379C331.823,28.48,316.898,22,300.479,22h-8.76C285.022,8.742,271.263,0,256,0
			s-29.021,8.742-35.719,22H211.5c-16.419,0-31.343,6.48-42.384,17.001H92.759c-26.885,0-48.758,21.873-48.758,48.758v375.484
			c0,26.885,21.873,48.758,48.758,48.758h326.483c26.885,0,48.758-21.873,48.758-48.758V87.759
			C468.001,60.874,446.128,39.001,419.243,39.001z M211.501,42h15.586c4.498,0,8.442-3.003,9.639-7.338
			C239.111,26.029,247.037,20,256.001,20c8.964,0,16.89,6.029,19.274,14.662c1.197,4.335,5.142,7.338,9.639,7.338h15.565
			c21.705,0,39.571,16.75,41.354,38.001H170.147C171.93,58.75,189.797,42,211.501,42z M448.001,463.244
			c0,15.857-12.901,28.758-28.758,28.758H92.759c-15.857,0-28.758-12.901-28.758-28.758V87.759
			c0-15.857,12.901-28.758,28.758-28.758h62.347c-3.276,7.512-5.105,15.794-5.105,24.5v6.5c0,5.523,4.477,10,10,10H351.98
			c5.523,0,10-4.477,10-10v-6.5c0-8.705-1.829-16.988-5.105-24.5h62.368c15.857,0,28.758,12.901,28.758,28.758V463.244z" />
            <path d="M192.41,149.596c-3.905-3.905-10.237-3.905-14.142-0.001l-42.762,42.763l-13.173-13.174
			c-3.905-3.904-10.237-3.904-14.143,0c-3.905,3.905-3.905,10.237,0,14.143l20.245,20.245c1.953,1.953,4.512,2.929,7.071,2.929
			c2.559,0,5.119-0.976,7.071-2.929l49.833-49.833C196.315,159.834,196.315,153.502,192.41,149.596z" />
            <path d="M168.001,368h-48c-5.523,0-10,4.477-10,10v48c0,5.523,4.477,10,10,10h48c5.523,0,10-4.477,10-10v-48
			C178.001,372.477,173.524,368,168.001,368z M158.001,416h-28v-28h28V416z" />
            <path d="M168.001,260h-48c-5.523,0-10,4.477-10,10v48c0,5.523,4.477,10,10,10h48c5.523,0,10-4.477,10-10v-48
			C178.001,264.477,173.524,260,168.001,260z M158.001,308h-28v-28h28V308z" />
        </g>
    </symbol>

    <!-- ARROWS -->

    <symbol id='leftArrow' viewBox="0 0 492 492">
        <g>
            <path d="M198.608,246.104L382.664,62.04c5.068-5.056,7.856-11.816,7.856-19.024c0-7.212-2.788-13.968-7.856-19.032l-16.128-16.12
			C361.476,2.792,354.712,0,347.504,0s-13.964,2.792-19.028,7.864L109.328,227.008c-5.084,5.08-7.868,11.868-7.848,19.084
			c-0.02,7.248,2.76,14.028,7.848,19.112l218.944,218.932c5.064,5.072,11.82,7.864,19.032,7.864c7.208,0,13.964-2.792,19.032-7.864
			l16.124-16.12c10.492-10.492,10.492-27.572,0-38.06L198.608,246.104z" />
        </g>
    </symbol>

    <symbol id='rightArrow' viewBox="0 0 492.004 492.004">
        <g>
            <path d="M382.678,226.804L163.73,7.86C158.666,2.792,151.906,0,144.698,0s-13.968,2.792-19.032,7.86l-16.124,16.12
			c-10.492,10.504-10.492,27.576,0,38.064L293.398,245.9l-184.06,184.06c-5.064,5.068-7.86,11.824-7.86,19.028
			c0,7.212,2.796,13.968,7.86,19.04l16.124,16.116c5.068,5.068,11.824,7.86,19.032,7.86s13.968-2.792,19.032-7.86L382.678,265
			c5.076-5.084,7.864-11.872,7.848-19.088C390.542,238.668,387.754,231.884,382.678,226.804z" />
        </g>
    </symbol>

    <!-- SOCIALS -->

    <symbol id='facebook' viewBox="0 0 24 24">
        <g>
            <path d="m15.997 3.985h2.191v-3.816c-.378-.052-1.678-.169-3.192-.169-3.159 0-5.323 1.987-5.323 5.639v3.361h-3.486v4.266h3.486v10.734h4.274v-10.733h3.345l.531-4.266h-3.877v-2.939c.001-1.233.333-2.077 2.051-2.077z" />
        </g>
    </symbol>

    <symbol id='twitter' viewBox="0 0 512 512">
        <g>
            <path d="M512,97.248c-19.04,8.352-39.328,13.888-60.48,16.576c21.76-12.992,38.368-33.408,46.176-58.016
			c-20.288,12.096-42.688,20.64-66.56,25.408C411.872,60.704,384.416,48,354.464,48c-58.112,0-104.896,47.168-104.896,104.992
			c0,8.32,0.704,16.32,2.432,23.936c-87.264-4.256-164.48-46.08-216.352-109.792c-9.056,15.712-14.368,33.696-14.368,53.056
			c0,36.352,18.72,68.576,46.624,87.232c-16.864-0.32-33.408-5.216-47.424-12.928c0,0.32,0,0.736,0,1.152
			c0,51.008,36.384,93.376,84.096,103.136c-8.544,2.336-17.856,3.456-27.52,3.456c-6.72,0-13.504-0.384-19.872-1.792
			c13.6,41.568,52.192,72.128,98.08,73.12c-35.712,27.936-81.056,44.768-130.144,44.768c-8.608,0-16.864-0.384-25.12-1.44
			C46.496,446.88,101.6,464,161.024,464c193.152,0,298.752-160,298.752-298.688c0-4.64-0.16-9.12-0.384-13.568
			C480.224,136.96,497.728,118.496,512,97.248z" />
        </g>
    </symbol>

    <symbol id='instagram' viewBox="0 0 511 511.9">
        <g>
            <path d="m510.949219 150.5c-1.199219-27.199219-5.597657-45.898438-11.898438-62.101562-6.5-17.199219-16.5-32.597657-29.601562-45.398438-12.800781-13-28.300781-23.101562-45.300781-29.5-16.296876-6.300781-34.898438-10.699219-62.097657-11.898438-27.402343-1.300781-36.101562-1.601562-105.601562-1.601562s-78.199219.300781-105.5 1.5c-27.199219 1.199219-45.898438 5.601562-62.097657 11.898438-17.203124 6.5-32.601562 16.5-45.402343 29.601562-13 12.800781-23.097657 28.300781-29.5 45.300781-6.300781 16.300781-10.699219 34.898438-11.898438 62.097657-1.300781 27.402343-1.601562 36.101562-1.601562 105.601562s.300781 78.199219 1.5 105.5c1.199219 27.199219 5.601562 45.898438 11.902343 62.101562 6.5 17.199219 16.597657 32.597657 29.597657 45.398438 12.800781 13 28.300781 23.101562 45.300781 29.5 16.300781 6.300781 34.898438 10.699219 62.101562 11.898438 27.296876 1.203124 36 1.5 105.5 1.5s78.199219-.296876 105.5-1.5c27.199219-1.199219 45.898438-5.597657 62.097657-11.898438 34.402343-13.300781 61.601562-40.5 74.902343-74.898438 6.296876-16.300781 10.699219-34.902343 11.898438-62.101562 1.199219-27.300781 1.5-36 1.5-105.5s-.101562-78.199219-1.300781-105.5zm-46.097657 209c-1.101562 25-5.300781 38.5-8.800781 47.5-8.601562 22.300781-26.300781 40-48.601562 48.601562-9 3.5-22.597657 7.699219-47.5 8.796876-27 1.203124-35.097657 1.5-103.398438 1.5s-76.5-.296876-103.402343-1.5c-25-1.097657-38.5-5.296876-47.5-8.796876-11.097657-4.101562-21.199219-10.601562-29.398438-19.101562-8.5-8.300781-15-18.300781-19.101562-29.398438-3.5-9-7.699219-22.601562-8.796876-47.5-1.203124-27-1.5-35.101562-1.5-103.402343s.296876-76.5 1.5-103.398438c1.097657-25 5.296876-38.5 8.796876-47.5 4.101562-11.101562 10.601562-21.199219 19.203124-29.402343 8.296876-8.5 18.296876-15 29.398438-19.097657 9-3.5 22.601562-7.699219 47.5-8.800781 27-1.199219 35.101562-1.5 103.398438-1.5 68.402343 0 76.5.300781 103.402343 1.5 25 1.101562 38.5 5.300781 47.5 8.800781 11.097657 4.097657 21.199219 10.597657 29.398438 19.097657 8.5 8.300781 15 18.300781 19.101562 29.402343 3.5 9 7.699219 22.597657 8.800781 47.5 1.199219 27 1.5 35.097657 1.5 103.398438s-.300781 76.300781-1.5 103.300781zm0 0" />
            <path d="m256.449219 124.5c-72.597657 0-131.5 58.898438-131.5 131.5s58.902343 131.5 131.5 131.5c72.601562 0 131.5-58.898438 131.5-131.5s-58.898438-131.5-131.5-131.5zm0 216.800781c-47.097657 0-85.300781-38.199219-85.300781-85.300781s38.203124-85.300781 85.300781-85.300781c47.101562 0 85.300781 38.199219 85.300781 85.300781s-38.199219 85.300781-85.300781 85.300781zm0 0" />
            <path d="m423.851562 119.300781c0 16.953125-13.746093 30.699219-30.703124 30.699219-16.953126 0-30.699219-13.746094-30.699219-30.699219 0-16.957031 13.746093-30.699219 30.699219-30.699219 16.957031 0 30.703124 13.742188 30.703124 30.699219zm0 0" />
        </g>
    </symbol>

    <symbol id='linkedin' viewBox="0 0 24 24">
        <g>
            <path d="m23.994 24v-.001h.006v-8.802c0-4.306-.927-7.623-5.961-7.623-2.42 0-4.044 1.328-4.707 2.587h-.07v-2.185h-4.773v16.023h4.97v-7.934c0-2.089.396-4.109 2.983-4.109 2.549 0 2.587 2.384 2.587 4.243v7.801z" />
            <path d="m.396 7.977h4.976v16.023h-4.976z" />
            <path d="m2.882 0c-1.591 0-2.882 1.291-2.882 2.882s1.291 2.909 2.882 2.909 2.882-1.318 2.882-2.909c-.001-1.591-1.292-2.882-2.882-2.882z" />
        </g>
    </symbol>


</svg>